Coordinates
version=1
nRows=18
nColumns=34
inDegrees=no

Units are S.I. units (second, meters, Newtons, ...)
If the header above contains a line with 'inDegrees', this indicates whether rotational values are in degrees (yes) or radians (no).

endheader
time	pelvis_tilt	pelvis_list	pelvis_rotation	pelvis_tx	pelvis_ty	pelvis_tz	hip_flexion_r	hip_adduction_r	hip_rotation_r	knee_angle_r	ankle_angle_r	subtalar_angle_r	mtp_angle_r	hip_flexion_l	hip_adduction_l	hip_rotation_l	knee_angle_l	ankle_angle_l	subtalar_angle_l	mtp_angle_l	lumbar_extension	lumbar_bending	lumbar_rotation	arm_flex_r	arm_add_r	arm_rot_r	elbow_flex_r	pro_sup_r	arm_flex_l	arm_add_l	arm_rot_l	elbow_flex_l	pro_sup_l
1.35	-0.13019	0.149564	0.103271	1.10568	0.929229	-0.204532	0.636204	-0.162952	-0.261543	0.228608	0.349813	0.337979	-0.102371	-0.139897	0.20275	-0.0356117	0.00491455	0.312137	0.463603	-0.0994803	-0.0734202	-0.440529	-0.0276497	-0.165265	-0.108854	0.0350379	0.590026	1.59733	0.0654662	-0.301859	-0.192251	0.702593	1.86459
1.36	-0.135501	0.148458	0.100839	1.11334	0.927961	-0.205134	0.637325	-0.154598	-0.278407	0.20578	0.35013	0.35488	-0.102376	-0.141747	0.202446	-0.0364657	0.00395099	0.312467	0.462118	-0.0994559	-0.067618	-0.434152	-0.0264687	-0.165736	-0.110414	0.0312996	0.589361	1.59298	0.0633155	-0.299905	-0.187574	0.692	1.88745
1.37	-0.140716	0.14769	0.09836	1.12108	0.926667	-0.205784	0.638476	-0.146755	-0.292393	0.187003	0.350576	0.368788	-0.10238	-0.143125	0.202413	-0.0382306	0.00382644	0.313002	0.461857	-0.0994315	-0.0622447	-0.427656	-0.0254985	-0.166018	-0.112138	0.0280157	0.588836	1.59031	0.0606908	-0.297733	-0.182967	0.68212	1.90185
1.38	-0.145705	0.147271	0.095961	1.12889	0.925362	-0.206499	0.639515	-0.139759	-0.30351	0.172721	0.35161	0.380265	-0.102384	-0.144079	0.202595	-0.0414475	0.00515566	0.313997	0.463719	-0.099407	-0.0574539	-0.421027	-0.0248635	-0.166158	-0.11405	0.0251431	0.588497	1.58904	0.0576344	-0.295311	-0.178507	0.67283	1.90877
1.39	-0.150359	0.147162	0.0937636	1.1368	0.924059	-0.207292	0.640286	-0.133867	-0.311888	0.163209	0.353622	0.390029	-0.102388	-0.144607	0.202868	-0.046781	0.0085941	0.315752	0.468709	-0.0993826	-0.0533517	-0.414203	-0.0246769	-0.166212	-0.116171	0.022637	0.588395	1.58876	0.0541778	-0.292614	-0.174286	0.663917	1.90994
1.4	-0.154596	0.147262	0.0918657	1.14483	0.922766	-0.208174	0.640611	-0.129187	-0.317726	0.158474	0.356827	0.398792	-0.102393	-0.144687	0.203036	-0.0549077	0.0147217	0.31855	0.477785	-0.0993582	-0.0499879	-0.407067	-0.0250237	-0.166237	-0.118523	0.0204497	0.588568	1.58903	0.0503368	-0.289629	-0.170399	0.655129	1.90746
1.41	-0.158362	0.147396	0.0903214	1.153	0.921483	-0.209148	0.64029	-0.125634	-0.32125	0.158179	0.361173	0.407124	-0.102397	-0.144326	0.202832	-0.0663519	0.0238994	0.322578	0.491632	-0.0993337	-0.0473532	-0.399436	-0.0259437	-0.166288	-0.121121	0.0185314	0.589023	1.58944	0.0461096	-0.286346	-0.166927	0.64621	1.90348
1.42	-0.161633	0.147326	0.0891248	1.16132	0.920205	-0.210209	0.639106	-0.12291	-0.322669	0.161613	0.366281	0.41533	-0.102401	-0.143606	0.20194	-0.0812846	0.0361344	0.327852	0.5104	-0.0993093	-0.0453816	-0.391057	-0.0274187	-0.166402	-0.123976	0.0168311	0.58973	1.58965	0.0414802	-0.282759	-0.163932	0.636932	1.89993
1.43	-0.164414	0.146765	0.0882035	1.16983	0.918916	-0.21135	0.636837	-0.12051	-0.322142	0.167715	0.371434	0.423353	-0.102406	-0.142717	0.200026	-0.099306	0.0510157	0.334138	0.533396	-0.0992848	-0.0439594	-0.381621	-0.0293666	-0.166599	-0.127093	0.015294	0.590615	1.58939	0.0364274	-0.278859	-0.161432	0.627132	1.89814
1.44	-0.166663	0.145353	0.087432	1.17853	0.91765	-0.212544	0.63331	-0.117797	-0.319817	0.175189	0.375642	0.430803	-0.10241	-0.141922	0.196775	-0.119491	0.0678054	0.340991	0.559132	-0.0992603	-0.0429162	-0.370796	-0.0316483	-0.166871	-0.130471	0.0138522	0.591556	1.58845	0.0309381	-0.274628	-0.159411	0.616704	1.89879
1.45	-0.168414	0.142738	0.0866384	1.18745	0.916412	-0.213767	0.628431	-0.114089	-0.315943	0.182727	0.377786	0.437104	-0.102414	-0.141449	0.191883	-0.140786	0.0857075	0.347905	0.585831	-0.0992359	-0.0420786	-0.358226	-0.0340782	-0.167188	-0.134104	0.0124147	0.592402	1.58673	0.0250183	-0.270037	-0.157824	0.605605	1.90201
1.46	-0.169721	0.138588	0.0856307	1.19658	0.915205	-0.214998	0.62224	-0.108762	-0.310911	0.18922	0.376788	0.441589	-0.102418	-0.141441	0.185093	-0.16219	0.104026	0.354391	0.611679	-0.0992114	-0.0412772	-0.34357	-0.0364455	-0.167501	-0.137985	0.0108598	0.592993	1.58418	0.0186994	-0.265037	-0.156602	0.593855	1.90735
1.47	-0.170653	0.132631	0.0842183	1.20591	0.914039	-0.216221	0.614916	-0.101339	-0.305228	0.19395	0.371791	0.443564	-0.102423	-0.14194	0.176218	-0.182785	0.122241	0.359999	0.634945	-0.0991869	-0.0403728	-0.326524	-0.038534	-0.167754	-0.142111	0.00903674	0.593183	1.58084	0.0120361	-0.259559	-0.15567	0.581545	1.91388
1.48	-0.17127	0.124669	0.0822319	1.21544	0.912923	-0.217425	0.606759	-0.091535	-0.29945	0.196686	0.362315	0.44236	-0.102427	-0.142905	0.165143	-0.201816	0.14007	0.364329	0.654167	-0.0991625	-0.0392824	-0.306847	-0.0401435	-0.16789	-0.14649	0.00677896	0.592873	1.57683	0.00509678	-0.25351	-0.154984	0.56883	1.92046
1.49	-0.171612	0.114557	0.0795327	1.22513	0.911875	-0.218605	0.598113	-0.0792305	-0.294066	0.197666	0.348339	0.437346	-0.102431	-0.144202	0.151774	-0.218942	0.157549	0.367098	0.668567	-0.099138	-0.0380075	-0.284353	-0.0411087	-0.167862	-0.151147	0.00392427	0.59204	1.57226	-0.00205086	-0.246786	-0.154575	0.555908	1.92619
1.5	-0.171677	0.102195	0.0760184	1.23496	0.91092	-0.219755	0.589285	-0.0644307	-0.289403	0.197476	0.330325	0.428013	-0.102435	-0.145649	0.136006	-0.234246	0.175008	0.368126	0.678151	-0.0991135	-0.0366412	-0.258913	-0.041315	-0.167638	-0.15611	0.000331755	0.590739	1.56724	-0.00935526	-0.239281	-0.15456	0.543009	1.93056
1.51	-0.171432	0.0875438	0.0716348	1.24491	0.910084	-0.220874	0.580489	-0.0472379	-0.28562	0.196885	0.309175	0.414161	-0.10244	-0.147054	0.117738	-0.248096	0.192965	0.367299	0.683558	-0.099089	-0.0353441	-0.23047	-0.0407109	-0.167211	-0.161408	-0.00410975	0.589102	1.56193	-0.0167968	-0.230911	-0.155117	0.530401	1.93341
1.52	-0.170836	0.0706271	0.0663864	1.25495	0.909398	-0.221961	0.571805	-0.027801	-0.282657	0.196597	0.286076	0.39596	-0.102444	-0.148235	0.0968879	-0.260981	0.212017	0.364532	0.68581	-0.0990645	-0.0342987	-0.19906	-0.0393176	-0.166603	-0.167054	-0.0094756	0.587314	1.5566	-0.0243969	-0.221635	-0.156456	0.518381	1.93493
